<svg width="32" height="32" viewBox="0 0 32 32" fill="none" xmlns="http://www.w3.org/2000/svg">
    <g clip-path="url(#clip0_24_103)">
        <path d="M18.6666 4V9.33333C18.6666 9.68696 18.8071 10.0261 19.0572 10.2761C19.3072 10.5262 19.6463 10.6667 20 10.6667H25.3333" stroke="#453B3A" stroke-width="2" stroke-linecap="round" stroke-linejoin="round"/>
        <path d="M22.6666 28H9.33329C8.62605 28 7.94777 27.719 7.44767 27.219C6.94758 26.7189 6.66663 26.0406 6.66663 25.3333V6.66667C6.66663 5.95942 6.94758 5.28115 7.44767 4.78105C7.94777 4.28095 8.62605 4 9.33329 4H18.6666L25.3333 10.6667V25.3333C25.3333 26.0406 25.0523 26.7189 24.5522 27.219C24.0521 27.719 23.3739 28 22.6666 28Z" stroke="#453B3A" stroke-width="2" stroke-linecap="round" stroke-linejoin="round"/>
        <path d="M14.6666 16.6667C14.6666 16.1362 14.4559 15.6275 14.0808 15.2525C13.7058 14.8774 13.1971 14.6667 12.6666 14.6667C12.1362 14.6667 11.6275 14.8774 11.2524 15.2525C10.8773 15.6275 10.6666 16.1362 10.6666 16.6667V20.6667C10.6666 21.1971 10.8773 21.7058 11.2524 22.0809C11.6275 22.456 12.1362 22.6667 12.6666 22.6667C13.1971 22.6667 13.7058 22.456 14.0808 22.0809C14.4559 21.7058 14.6666 21.1971 14.6666 20.6667" stroke="#453B3A" stroke-width="2" stroke-linecap="round" stroke-linejoin="round"/>
        <path d="M17.3334 14.6667L19.3334 22.6667L21.3334 14.6667" stroke="#453B3A" stroke-width="2" stroke-linecap="round" stroke-linejoin="round"/>
    </g>
    <defs>
        <clipPath id="clip0_24_103">
            <rect width="32" height="32" fill="white"/>
        </clipPath>
    </defs>
</svg>
